<?xml version="1.0" encoding="UTF-8" standalone="no"?>
<svg
   xmlns:dc="http://purl.org/dc/elements/1.1/"
   xmlns:cc="http://creativecommons.org/ns#"
   xmlns:rdf="http://www.w3.org/1999/02/22-rdf-syntax-ns#"
   xmlns:svg="http://www.w3.org/2000/svg"
   xmlns="http://www.w3.org/2000/svg"
   id="svg8"
   version="1.1"
   viewBox="0 0 52.916665 79.375002"
   height="300"
   width="200">
  <defs
     id="defs2" />
  <metadata
     id="metadata5">
    <rdf:RDF>
      <cc:Work
         rdf:about="">
        <dc:format>image/svg+xml</dc:format>
        <dc:type
           rdf:resource="http://purl.org/dc/dcmitype/StillImage" />
        <dc:title></dc:title>
      </cc:Work>
    </rdf:RDF>
  </metadata>
  <g
     transform="translate(0,-217.62499)"
     id="layer1">
    <ellipse
       ry="6.2912331"
       rx="2.2792604"
       cy="236.4563"
       cx="10.825704"
       id="path859"
       style="fill:#000000;fill-opacity:1;stroke:none;stroke-width:8.71169281;stroke-miterlimit:4;stroke-dasharray:none;stroke-opacity:1" />
    <ellipse
       ry="6.9902587"
       rx="2.5325115"
       cy="235.75725"
       cx="18.642101"
       id="ellipse891"
       style="fill:#000000;fill-opacity:1;stroke:none;stroke-width:9.67965698;stroke-miterlimit:4;stroke-dasharray:none;stroke-opacity:1" />
    <ellipse
       ry="7.7669544"
       rx="2.8139019"
       cy="234.98056"
       cx="26.458502"
       id="ellipse897"
       style="fill:#000000;fill-opacity:1;stroke:none;stroke-width:10.75517559;stroke-miterlimit:4;stroke-dasharray:none;stroke-opacity:1" />
    <ellipse
       ry="6.9902587"
       rx="2.5325115"
       cy="235.75717"
       cx="34.274891"
       id="ellipse901"
       style="fill:#000000;fill-opacity:1;stroke:none;stroke-width:9.67965698;stroke-miterlimit:4;stroke-dasharray:none;stroke-opacity:1" />
    <ellipse
       ry="6.2912331"
       rx="2.2792604"
       cy="236.4563"
       cx="42.091282"
       id="ellipse905"
       style="fill:#000000;fill-opacity:1;stroke:none;stroke-width:8.71169281;stroke-miterlimit:4;stroke-dasharray:none;stroke-opacity:1" />
    <path
       id="rect907"
       d="M 3.6493592,217.62499 C 1.6822458,217.62499 0,219.26269 0,221.17771 v 72.26956 c 0,1.91502 1.6822458,3.55272 3.6493592,3.55272 H 49.267308 c 1.967115,0 3.649359,-1.6377 3.649359,-3.55272 v -72.26956 c 0,-1.91502 -1.682244,-3.55272 -3.649359,-3.55272 z m 2.66672,6.14853 H 46.600592 v 19.07786 c -0.08362,-0.0642 -0.188142,-0.10395 -0.303375,-0.10395 H 6.6197682 c -0.1153982,0 -0.220021,0.0399 -0.303689,0.10425 z m 0,23.71239 c 0.083664,0.0643 0.1882938,0.10425 0.303689,0.10425 H 46.297217 c 0.115235,0 0.219755,-0.0398 0.303375,-0.10395 v 43.36494 H 6.3160792 Z"
       style="color:#000000;font-style:normal;font-variant:normal;font-weight:normal;font-stretch:normal;font-size:medium;line-height:normal;font-family:sans-serif;font-variant-ligatures:normal;font-variant-position:normal;font-variant-caps:normal;font-variant-numeric:normal;font-variant-alternates:normal;font-feature-settings:normal;text-indent:0;text-align:start;text-decoration:none;text-decoration-line:none;text-decoration-style:solid;text-decoration-color:#000000;letter-spacing:normal;word-spacing:normal;text-transform:none;writing-mode:lr-tb;direction:ltr;text-orientation:mixed;dominant-baseline:auto;baseline-shift:baseline;text-anchor:start;white-space:normal;shape-padding:0;clip-rule:nonzero;display:inline;overflow:visible;visibility:visible;opacity:1;isolation:auto;mix-blend-mode:normal;color-interpolation:sRGB;color-interpolation-filters:linearRGB;solid-color:#000000;solid-opacity:1;vector-effect:none;fill:#000000;fill-opacity:1;fill-rule:nonzero;stroke:none;stroke-width:6.23181152;stroke-linecap:butt;stroke-linejoin:miter;stroke-miterlimit:4;stroke-dasharray:none;stroke-dashoffset:0;stroke-opacity:1;color-rendering:auto;image-rendering:auto;shape-rendering:auto;text-rendering:auto;enable-background:accumulate" />
    <flowRoot
       transform="matrix(0.35958594,0,0,0.39403797,0,-145.31538)"
       style="font-style:normal;font-weight:normal;font-size:40px;line-height:1.25;font-family:sans-serif;letter-spacing:0px;word-spacing:0px;fill:#000000;fill-opacity:1;stroke:none"
       id="flowRoot944"
       xml:space="preserve"><flowRegion
         id="flowRegion946"><rect
           y="303.23398"
           x="170.71428"
           height="115"
           width="82.512199"
           id="rect948" /></flowRegion><flowPara
         id="flowPara950">Matcb</flowPara></flowRoot>    <flowRoot
       transform="matrix(0.35958594,0,0,0.39403797,0,-145.31538)"
       style="font-style:normal;font-weight:normal;font-size:40px;line-height:1.25;font-family:sans-serif;letter-spacing:0px;word-spacing:0px;fill:#000000;fill-opacity:1;stroke:none"
       id="flowRoot952"
       xml:space="preserve"><flowRegion
         id="flowRegion954"><rect
           y="160.37683"
           x="99.285713"
           height="69.285713"
           width="76.428574"
           id="rect956" /></flowRegion><flowPara
         id="flowPara958">Matchb</flowPara></flowRoot>    <g
       id="flowRoot972"
       style="font-style:normal;font-weight:normal;font-size:7.87492228px;line-height:1.25;font-family:sans-serif;letter-spacing:0px;word-spacing:0px;fill:#000000;fill-opacity:1;stroke:none"
       transform="matrix(4.024829,9.2517316e-8,-8.4428223e-8,4.410449,-713.59567,-1219.6079)"
       aria-label="{  }">
      <path
         id="path1124"
         style="font-style:normal;font-variant:normal;font-weight:500;font-stretch:normal;font-family:ubuntu;-inkscape-font-specification:'ubuntu Medium';fill:#000000"
         d="m 179.59411,337.19866 q 0.36224,0 0.52762,-0.2205 0.17324,-0.22837 0.17324,-0.53549 v -1.15762 q 0,-0.37012 0.0709,-0.65362 0.0709,-0.29137 0.252,-0.48037 0.18112,-0.19687 0.50399,-0.29137 0.32287,-0.10237 0.82687,-0.10237 h 0.0551 v 0.75599 q -0.22837,0 -0.38587,0.0315 -0.1575,0.0315 -0.252,0.11812 -0.0945,0.0787 -0.14174,0.2205 -0.0394,0.13388 -0.0394,0.3465 v 1.12611 q 0,0.4725 -0.126,0.75599 -0.11812,0.27563 -0.40949,0.45675 0.29137,0.18112 0.40949,0.46462 0.126,0.2835 0.126,0.74812 v 1.13399 q 0,0.21262 0.0394,0.34649 0.0472,0.13388 0.14174,0.21263 0.0945,0.0866 0.252,0.11812 0.1575,0.0315 0.38587,0.0315 v 0.75599 q -0.52762,0 -0.85836,-0.0945 -0.33075,-0.0945 -0.51975,-0.29137 -0.189,-0.189 -0.25987,-0.47249 -0.0709,-0.2835 -0.0709,-0.6615 v -1.16549 q 0,-0.29924 -0.17324,-0.51974 -0.16538,-0.22837 -0.52762,-0.22837 z" />
      <path
         id="path1126"
         style="font-style:normal;font-variant:normal;font-weight:500;font-stretch:normal;font-family:ubuntu;-inkscape-font-specification:'ubuntu Medium';fill:#000000"
         d="m 188.15021,337.94678 q -0.36225,0 -0.53549,0.22837 -0.16538,0.2205 -0.16538,0.51974 v 1.16549 q 0,0.378 -0.0709,0.6615 -0.0709,0.28349 -0.25988,0.47249 -0.18899,0.19687 -0.51974,0.29137 -0.33075,0.0945 -0.85837,0.0945 v -0.75599 q 0.45675,0 0.63787,-0.14962 0.18113,-0.14175 0.18113,-0.55912 v -1.13399 q 0,-0.46462 0.11812,-0.74812 0.126,-0.2835 0.41737,-0.46462 -0.29137,-0.18112 -0.41737,-0.45675 -0.11812,-0.28349 -0.11812,-0.75599 v -1.12611 q 0,-0.21262 -0.0473,-0.3465 -0.0394,-0.14175 -0.13388,-0.2205 -0.0945,-0.0866 -0.252,-0.11812 -0.15749,-0.0315 -0.38587,-0.0315 v -0.75599 h 0.0551 q 0.50399,0 0.82686,0.10237 0.32288,0.0945 0.504,0.29137 0.18112,0.189 0.252,0.48037 0.0709,0.2835 0.0709,0.65362 v 1.15762 q 0,0.30712 0.16538,0.53549 0.17324,0.2205 0.53549,0.2205 z" />
    </g>
    <flowRoot
       transform="matrix(0.35958594,0,0,0.39403797,0,-145.31538)"
       style="font-style:normal;font-weight:normal;font-size:40px;line-height:1.25;font-family:sans-serif;letter-spacing:0px;word-spacing:0px;fill:#000000;fill-opacity:1;stroke:none"
       id="flowRoot1004"
       xml:space="preserve"><flowRegion
         id="flowRegion1006"><rect
           y="508.34692"
           x="224.25386"
           height="55.053314"
           width="81.317284"
           id="rect1008" /></flowRegion><flowPara
         id="flowPara1010">A∩B </flowPara></flowRoot>    <flowRoot
       transform="matrix(0.35958594,0,0,0.39403797,0,-145.31538)"
       style="font-style:normal;font-weight:normal;font-size:40px;line-height:1.25;font-family:sans-serif;letter-spacing:0px;word-spacing:0px;fill:#000000;fill-opacity:1;stroke:none"
       id="flowRoot1012"
       xml:space="preserve"><flowRegion
         id="flowRegion1014"><rect
           y="492.18451"
           x="210.61681"
           height="74.751289"
           width="99.500023"
           id="rect1016" /></flowRegion><flowPara
         id="flowPara1018" /></flowRoot>    <g
       aria-label="{  }"
       transform="matrix(1.7576669,4.0402866e-8,-3.6870311e-8,1.9260695,-296.72773,-380.95894)"
       style="font-style:normal;font-weight:normal;font-size:7.87492228px;line-height:1.25;font-family:sans-serif;letter-spacing:0px;word-spacing:0px;fill:#000000;fill-opacity:0.99607843;stroke:none"
       id="g1141">
      <path
         d="m 179.59411,337.19866 q 0.36224,0 0.52762,-0.2205 0.17324,-0.22837 0.17324,-0.53549 v -1.15762 q 0,-0.37012 0.0709,-0.65362 0.0709,-0.29137 0.252,-0.48037 0.18112,-0.19687 0.50399,-0.29137 0.32287,-0.10237 0.82687,-0.10237 h 0.0551 v 0.75599 q -0.22837,0 -0.38587,0.0315 -0.1575,0.0315 -0.252,0.11812 -0.0945,0.0787 -0.14174,0.2205 -0.0394,0.13388 -0.0394,0.3465 v 1.12611 q 0,0.4725 -0.126,0.75599 -0.11812,0.27563 -0.40949,0.45675 0.29137,0.18112 0.40949,0.46462 0.126,0.2835 0.126,0.74812 v 1.13399 q 0,0.21262 0.0394,0.34649 0.0472,0.13388 0.14174,0.21263 0.0945,0.0866 0.252,0.11812 0.1575,0.0315 0.38587,0.0315 v 0.75599 q -0.52762,0 -0.85836,-0.0945 -0.33075,-0.0945 -0.51975,-0.29137 -0.189,-0.189 -0.25987,-0.47249 -0.0709,-0.2835 -0.0709,-0.6615 v -1.16549 q 0,-0.29924 -0.17324,-0.51974 -0.16538,-0.22837 -0.52762,-0.22837 z"
         style="font-style:normal;font-variant:normal;font-weight:500;font-stretch:normal;font-family:ubuntu;-inkscape-font-specification:'ubuntu Medium';fill:#000000;fill-opacity:0.99607843"
         id="path1137" />
      <path
         d="m 188.15021,337.94678 q -0.36225,0 -0.53549,0.22837 -0.16538,0.2205 -0.16538,0.51974 v 1.16549 q 0,0.378 -0.0709,0.6615 -0.0709,0.28349 -0.25988,0.47249 -0.18899,0.19687 -0.51974,0.29137 -0.33075,0.0945 -0.85837,0.0945 v -0.75599 q 0.45675,0 0.63787,-0.14962 0.18113,-0.14175 0.18113,-0.55912 v -1.13399 q 0,-0.46462 0.11812,-0.74812 0.126,-0.2835 0.41737,-0.46462 -0.29137,-0.18112 -0.41737,-0.45675 -0.11812,-0.28349 -0.11812,-0.75599 v -1.12611 q 0,-0.21262 -0.0473,-0.3465 -0.0394,-0.14175 -0.13388,-0.2205 -0.0945,-0.0866 -0.252,-0.11812 -0.15749,-0.0315 -0.38587,-0.0315 v -0.75599 h 0.0551 q 0.50399,0 0.82686,0.10237 0.32288,0.0945 0.504,0.29137 0.18112,0.189 0.252,0.48037 0.0709,0.2835 0.0709,0.65362 v 1.15762 q 0,0.30712 0.16538,0.53549 0.17324,0.2205 0.53549,0.2205 z"
         style="font-style:normal;font-variant:normal;font-weight:500;font-stretch:normal;font-family:ubuntu;-inkscape-font-specification:'ubuntu Medium';fill:#000000;fill-opacity:0.99607843"
         id="path1139" />
    </g>
  </g>
</svg>
